<svg id="visual" viewBox="0 0 960 400" width="960" height="400" xmlns="http://www.w3.org/2000/svg" xmlns:xlink="http://www.w3.org/1999/xlink" version="1.1"><rect x="0" y="0" width="960" height="400" fill="#ff8730"></rect><defs><linearGradient id="grad1_0" x1="58.3%" y1="100%" x2="100%" y2="0%"><stop offset="2.0000000000000036%" stop-color="#f6b987" stop-opacity="1"></stop><stop offset="98%" stop-color="#f6b987" stop-opacity="1"></stop></linearGradient></defs><defs><linearGradient id="grad1_1" x1="58.3%" y1="100%" x2="100%" y2="0%"><stop offset="2.0000000000000036%" stop-color="#f6b987" stop-opacity="1"></stop><stop offset="98%" stop-color="#f8b27a" stop-opacity="1"></stop></linearGradient></defs><defs><linearGradient id="grad1_2" x1="58.3%" y1="100%" x2="100%" y2="0%"><stop offset="2.0000000000000036%" stop-color="#f9ac6e" stop-opacity="1"></stop><stop offset="98%" stop-color="#f8b27a" stop-opacity="1"></stop></linearGradient></defs><defs><linearGradient id="grad1_3" x1="58.3%" y1="100%" x2="100%" y2="0%"><stop offset="2.0000000000000036%" stop-color="#f9ac6e" stop-opacity="1"></stop><stop offset="98%" stop-color="#fba562" stop-opacity="1"></stop></linearGradient></defs><defs><linearGradient id="grad1_4" x1="58.3%" y1="100%" x2="100%" y2="0%"><stop offset="2.0000000000000036%" stop-color="#fc9e56" stop-opacity="1"></stop><stop offset="98%" stop-color="#fba562" stop-opacity="1"></stop></linearGradient></defs><defs><linearGradient id="grad1_5" x1="58.3%" y1="100%" x2="100%" y2="0%"><stop offset="2.0000000000000036%" stop-color="#fc9e56" stop-opacity="1"></stop><stop offset="98%" stop-color="#fd9649" stop-opacity="1"></stop></linearGradient></defs><defs><linearGradient id="grad1_6" x1="58.3%" y1="100%" x2="100%" y2="0%"><stop offset="2.0000000000000036%" stop-color="#fe8f3d" stop-opacity="1"></stop><stop offset="98%" stop-color="#fd9649" stop-opacity="1"></stop></linearGradient></defs><defs><linearGradient id="grad1_7" x1="58.3%" y1="100%" x2="100%" y2="0%"><stop offset="2.0000000000000036%" stop-color="#fe8f3d" stop-opacity="1"></stop><stop offset="98%" stop-color="#ff8730" stop-opacity="1"></stop></linearGradient></defs><defs><linearGradient id="grad2_0" x1="0%" y1="100%" x2="41.7%" y2="0%"><stop offset="2.0000000000000036%" stop-color="#f6b987" stop-opacity="1"></stop><stop offset="98%" stop-color="#f6b987" stop-opacity="1"></stop></linearGradient></defs><defs><linearGradient id="grad2_1" x1="0%" y1="100%" x2="41.7%" y2="0%"><stop offset="2.0000000000000036%" stop-color="#f8b27a" stop-opacity="1"></stop><stop offset="98%" stop-color="#f6b987" stop-opacity="1"></stop></linearGradient></defs><defs><linearGradient id="grad2_2" x1="0%" y1="100%" x2="41.7%" y2="0%"><stop offset="2.0000000000000036%" stop-color="#f8b27a" stop-opacity="1"></stop><stop offset="98%" stop-color="#f9ac6e" stop-opacity="1"></stop></linearGradient></defs><defs><linearGradient id="grad2_3" x1="0%" y1="100%" x2="41.7%" y2="0%"><stop offset="2.0000000000000036%" stop-color="#fba562" stop-opacity="1"></stop><stop offset="98%" stop-color="#f9ac6e" stop-opacity="1"></stop></linearGradient></defs><defs><linearGradient id="grad2_4" x1="0%" y1="100%" x2="41.7%" y2="0%"><stop offset="2.0000000000000036%" stop-color="#fba562" stop-opacity="1"></stop><stop offset="98%" stop-color="#fc9e56" stop-opacity="1"></stop></linearGradient></defs><defs><linearGradient id="grad2_5" x1="0%" y1="100%" x2="41.7%" y2="0%"><stop offset="2.0000000000000036%" stop-color="#fd9649" stop-opacity="1"></stop><stop offset="98%" stop-color="#fc9e56" stop-opacity="1"></stop></linearGradient></defs><defs><linearGradient id="grad2_6" x1="0%" y1="100%" x2="41.7%" y2="0%"><stop offset="2.0000000000000036%" stop-color="#fd9649" stop-opacity="1"></stop><stop offset="98%" stop-color="#fe8f3d" stop-opacity="1"></stop></linearGradient></defs><defs><linearGradient id="grad2_7" x1="0%" y1="100%" x2="41.7%" y2="0%"><stop offset="2.0000000000000036%" stop-color="#ff8730" stop-opacity="1"></stop><stop offset="98%" stop-color="#fe8f3d" stop-opacity="1"></stop></linearGradient></defs><g transform="translate(960, 400)"><path d="M-260 0C-247.6 -17.6 -235.2 -35.3 -228.1 -52.1C-221 -68.9 -219.2 -84.8 -218 -105C-216.9 -125.2 -216.4 -149.7 -203.3 -162.1C-190.1 -174.5 -164.2 -174.7 -147.1 -184.5C-130.1 -194.3 -121.8 -213.7 -107.6 -223.4C-93.4 -233.2 -73.2 -233.4 -54.3 -237.9C-35.4 -242.4 -17.7 -251.2 0 -260L0 0Z" fill="#ff8b37"></path><path d="M-227.5 0C-216.7 -15.4 -205.8 -30.9 -199.6 -45.6C-193.4 -60.2 -191.8 -74.2 -190.8 -91.9C-189.8 -109.6 -189.4 -131 -177.9 -141.8C-166.3 -152.7 -143.7 -152.9 -128.8 -161.4C-113.8 -170 -106.6 -187 -94.2 -195.5C-81.7 -204.1 -64.1 -204.2 -47.5 -208.1C-30.9 -212.1 -15.5 -219.8 0 -227.5L0 0Z" fill="#fe9343"></path><path d="M-195 0C-185.7 -13.2 -176.4 -26.5 -171.1 -39.1C-165.8 -51.6 -164.4 -63.6 -163.5 -78.7C-162.7 -93.9 -162.3 -112.3 -152.5 -121.6C-142.6 -130.9 -123.2 -131 -110.4 -138.4C-97.6 -145.7 -91.4 -160.3 -80.7 -167.6C-70 -174.9 -54.9 -175 -40.7 -178.4C-26.5 -181.8 -13.3 -188.4 0 -195L0 0Z" fill="#fc9a50"></path><path d="M-162.5 0C-154.8 -11 -147 -22.1 -142.6 -32.5C-138.1 -43 -137 -53 -136.3 -65.6C-135.6 -78.3 -135.3 -93.6 -127 -101.3C-118.8 -109.1 -102.6 -109.2 -92 -115.3C-81.3 -121.4 -76.1 -133.5 -67.3 -139.7C-58.4 -145.8 -45.8 -145.9 -33.9 -148.7C-22.1 -151.5 -11.1 -157 0 -162.5L0 0Z" fill="#fba15c"></path><path d="M-130 0C-123.8 -8.8 -117.6 -17.6 -114.1 -26C-110.5 -34.4 -109.6 -42.4 -109 -52.5C-108.4 -62.6 -108.2 -74.9 -101.6 -81.1C-95.1 -87.2 -82.1 -87.4 -73.6 -92.3C-65 -97.2 -60.9 -106.8 -53.8 -111.7C-46.7 -116.6 -36.6 -116.7 -27.1 -118.9C-17.7 -121.2 -8.8 -125.6 0 -130L0 0Z" fill="#faa868"></path><path d="M-97.5 0C-92.9 -6.6 -88.2 -13.2 -85.5 -19.5C-82.9 -25.8 -82.2 -31.8 -81.8 -39.4C-81.3 -47 -81.2 -56.2 -76.2 -60.8C-71.3 -65.4 -61.6 -65.5 -55.2 -69.2C-48.8 -72.9 -45.7 -80.1 -40.4 -83.8C-35 -87.5 -27.5 -87.5 -20.4 -89.2C-13.3 -90.9 -6.6 -94.2 0 -97.5L0 0Z" fill="#f8af74"></path><path d="M-65 0C-61.9 -4.4 -58.8 -8.8 -57 -13C-55.3 -17.2 -54.8 -21.2 -54.5 -26.2C-54.2 -31.3 -54.1 -37.4 -50.8 -40.5C-47.5 -43.6 -41.1 -43.7 -36.8 -46.1C-32.5 -48.6 -30.5 -53.4 -26.9 -55.9C-23.3 -58.3 -18.3 -58.3 -13.6 -59.5C-8.8 -60.6 -4.4 -62.8 0 -65L0 0Z" fill="#f7b681"></path><path d="M-32.5 0C-31 -2.2 -29.4 -4.4 -28.5 -6.5C-27.6 -8.6 -27.4 -10.6 -27.3 -13.1C-27.1 -15.7 -27.1 -18.7 -25.4 -20.3C-23.8 -21.8 -20.5 -21.8 -18.4 -23.1C-16.3 -24.3 -15.2 -26.7 -13.5 -27.9C-11.7 -29.2 -9.2 -29.2 -6.8 -29.7C-4.4 -30.3 -2.2 -31.4 0 -32.5L0 0Z" fill="#f6b987"></path></g><g transform="translate(0, 0)"><path d="M260 0C256.4 19.3 252.9 38.7 243.7 55.6C234.6 72.6 219.8 87.2 206.3 99.4C192.8 111.5 180.6 121.2 173.6 138.4C166.5 155.7 164.7 180.4 152.1 190.8C139.6 201.1 116.3 196.9 99.8 207.2C83.2 217.5 73.4 242.3 57.9 253.5C42.3 264.7 21.2 262.3 0 260L0 0Z" fill="#ff8b37"></path><path d="M227.5 0C224.4 16.9 221.3 33.8 213.3 48.7C205.3 63.5 192.3 76.3 180.5 86.9C168.7 97.6 158 106 151.9 121.1C145.7 136.2 144.1 157.9 133.1 166.9C122.1 175.9 101.8 172.3 87.3 181.3C72.8 190.3 64.2 212 50.6 221.8C37 231.6 18.5 229.6 0 227.5L0 0Z" fill="#fe9343"></path><path d="M195 0C192.3 14.5 189.7 29 182.8 41.7C175.9 54.5 164.9 65.4 154.7 74.5C144.6 83.6 135.5 90.9 130.2 103.8C124.9 116.7 123.5 135.3 114.1 143.1C104.7 150.8 87.3 147.7 74.8 155.4C62.4 163.1 55 181.7 43.4 190.1C31.8 198.5 15.9 196.8 0 195L0 0Z" fill="#fc9a50"></path><path d="M162.5 0C160.3 12.1 158.1 24.2 152.3 34.8C146.6 45.4 137.4 54.5 129 62.1C120.5 69.7 112.9 75.7 108.5 86.5C104.1 97.3 102.9 112.8 95.1 119.2C87.2 125.7 72.7 123.1 62.4 129.5C52 136 45.9 151.4 36.2 158.4C26.5 165.4 13.2 164 0 162.5L0 0Z" fill="#fba15c"></path><path d="M130 0C128.2 9.7 126.4 19.3 121.9 27.8C117.3 36.3 109.9 43.6 103.2 49.7C96.4 55.8 90.3 60.6 86.8 69.2C83.3 77.8 82.3 90.2 76.1 95.4C69.8 100.5 58.2 98.5 49.9 103.6C41.6 108.8 36.7 121.1 28.9 126.7C21.2 132.3 10.6 131.2 0 130L0 0Z" fill="#faa868"></path><path d="M97.5 0C96.2 7.2 94.8 14.5 91.4 20.9C88 27.2 82.4 32.7 77.4 37.3C72.3 41.8 67.7 45.4 65.1 51.9C62.4 58.4 61.8 67.7 57 71.5C52.3 75.4 43.6 73.8 37.4 77.7C31.2 81.6 27.5 90.9 21.7 95.1C15.9 99.3 7.9 98.4 0 97.5L0 0Z" fill="#f8af74"></path><path d="M65 0C64.1 4.8 63.2 9.7 60.9 13.9C58.6 18.2 55 21.8 51.6 24.8C48.2 27.9 45.2 30.3 43.4 34.6C41.6 38.9 41.2 45.1 38 47.7C34.9 50.3 29.1 49.2 24.9 51.8C20.8 54.4 18.3 60.6 14.5 63.4C10.6 66.2 5.3 65.6 0 65L0 0Z" fill="#f7b681"></path><path d="M32.5 0C32.1 2.4 31.6 4.8 30.5 7C29.3 9.1 27.5 10.9 25.8 12.4C24.1 13.9 22.6 15.1 21.7 17.3C20.8 19.5 20.6 22.6 19 23.8C17.4 25.1 14.5 24.6 12.5 25.9C10.4 27.2 9.2 30.3 7.2 31.7C5.3 33.1 2.6 32.8 0 32.5L0 0Z" fill="#f6b987"></path></g></svg>